<?xml version="1.0" encoding="iso-8859-1"?>
<!-- Generator: Adobe Illustrator 19.0.0, SVG Export Plug-In . SVG Version: 6.00 Build 0)  -->
<svg version="1.1" id="&#x56FE;&#x5C42;_1" xmlns="http://www.w3.org/2000/svg" xmlns:xlink="http://www.w3.org/1999/xlink" x="0px"
	 y="0px" viewBox="0 0 841.89 595.28" style="enable-background:new 0 0 841.89 595.28;" xml:space="preserve">
<g id="XMLID_2_">
	<animateTransform attributeName="stroke-dasharray" attributeType="XML" from="1000" to="0" begin="0s" dur="5s" fill="freeze"></animateTransform>
	<polygon id="XMLID_33_" style="fill:none;stroke:#8F803E;stroke-miterlimit:10;" points="275.052,116.715 169.385,244.381 
		171.718,369.381 285.718,497.381 386.961,519.048 539.385,466.048 603.718,312.354 580.052,214.715 460.718,95.048 	"/>
	<polyline id="XMLID_32_" style="fill:none;stroke:#8F803E;stroke-miterlimit:10;" points="169.385,244.381 197.718,262.381 
		262.718,215.048 388.385,187.381 491.052,175.715 527.718,269.048 522.052,436.048 487.718,413.715 386.961,519.048 
		331.385,426.381 285.718,497.381 247.385,342.715 171.718,369.381 215.385,387.381 331.385,426.381 435.852,502.048 	"/>
	
		<line id="XMLID_31_" style="fill:none;stroke:#8F803E;stroke-miterlimit:10;" x1="331.385" y1="426.381" x2="487.718" y2="413.715"/>
	
		<line id="XMLID_30_" style="fill:none;stroke:#8F803E;stroke-miterlimit:10;" x1="487.718" y1="413.715" x2="603.718" y2="312.354"/>
	
		<line id="XMLID_29_" style="fill:none;stroke:#8F803E;stroke-miterlimit:10;" x1="522.052" y1="436.048" x2="605.052" y2="312.354"/>
	
		<line id="XMLID_28_" style="fill:none;stroke:#8F803E;stroke-miterlimit:10;" x1="386.961" y1="519.048" x2="523.385" y2="436.048"/>
	
		<line id="XMLID_27_" style="fill:none;stroke:#8F803E;stroke-miterlimit:10;" x1="523.385" y1="436.048" x2="539.385" y2="466.048"/>
	
		<line id="XMLID_26_" style="fill:none;stroke:#8F803E;stroke-miterlimit:10;" x1="575.264" y1="356.747" x2="527.718" y2="269.048"/>
	
		<line id="XMLID_25_" style="fill:none;stroke:#8F803E;stroke-miterlimit:10;" x1="603.718" y1="314.342" x2="526.385" y2="269.048"/>
	
		<line id="XMLID_24_" style="fill:none;stroke:#8F803E;stroke-miterlimit:10;" x1="580.052" y1="214.715" x2="527.718" y2="269.048"/>
	
		<line id="XMLID_23_" style="fill:none;stroke:#8F803E;stroke-miterlimit:10;" x1="386.552" y1="187.785" x2="478.385" y2="138.715"/>
	
		<line id="XMLID_22_" style="fill:none;stroke:#8F803E;stroke-miterlimit:10;" x1="491.052" y1="175.715" x2="478.385" y2="138.715"/>
	
		<line id="XMLID_21_" style="fill:none;stroke:#8F803E;stroke-miterlimit:10;" x1="478.385" y1="138.715" x2="580.052" y2="214.715"/>
	
		<line id="XMLID_20_" style="fill:none;stroke:#8F803E;stroke-miterlimit:10;" x1="580.052" y1="214.715" x2="491.052" y2="175.715"/>
	
		<line id="XMLID_19_" style="fill:none;stroke:#8F803E;stroke-miterlimit:10;" x1="460.718" y1="95.048" x2="430.052" y2="110.048"/>
	
		<line id="XMLID_18_" style="fill:none;stroke:#8F803E;stroke-miterlimit:10;" x1="430.052" y1="110.048" x2="284.451" y2="115.618"/>
	
		<line id="XMLID_17_" style="fill:none;stroke:#8F803E;stroke-miterlimit:10;" x1="430.052" y1="110.048" x2="480.094" y2="139.992"/>
	
		<line id="XMLID_16_" style="fill:none;stroke:#8F803E;stroke-miterlimit:10;" x1="478.385" y1="138.715" x2="275.052" y2="116.715"/>
	
		<line id="XMLID_15_" style="fill:none;stroke:#8F803E;stroke-miterlimit:10;" x1="275.052" y1="116.715" x2="262.718" y2="215.048"/>
	
		<line id="XMLID_14_" style="fill:none;stroke:#8F803E;stroke-miterlimit:10;" x1="210.079" y1="195.215" x2="268.885" y2="165.881"/>
	
		<line id="XMLID_13_" style="fill:none;stroke:#8F803E;stroke-miterlimit:10;" x1="268.885" y1="165.881" x2="333.681" y2="123.058"/>
	
		<line id="XMLID_12_" style="fill:none;stroke:#8F803E;stroke-miterlimit:10;" x1="333.681" y1="123.058" x2="386.961" y2="189.381"/>
	
		<line id="XMLID_11_" style="fill:none;stroke:#8F803E;stroke-miterlimit:10;" x1="386.961" y1="189.381" x2="268.885" y2="165.881"/>
	
		<line id="XMLID_10_" style="fill:none;stroke:#8F803E;stroke-miterlimit:10;" x1="169.385" y1="244.381" x2="268.885" y2="165.881"/>
	
		<line id="XMLID_9_" style="fill:none;stroke:#8F803E;stroke-miterlimit:10;" x1="268.885" y1="165.881" x2="197.718" y2="262.381"/>
	
		<line id="XMLID_8_" style="fill:none;stroke:#8F803E;stroke-miterlimit:10;" x1="169.385" y1="244.381" x2="264.232" y2="214.715"/>
	
		<line id="XMLID_7_" style="fill:none;stroke:#8F803E;stroke-miterlimit:10;" x1="262.718" y1="216.381" x2="215.385" y2="387.381"/>
	
		<line id="XMLID_6_" style="fill:none;stroke:#8F803E;stroke-miterlimit:10;" x1="215.385" y1="387.381" x2="169.385" y2="244.381"/>
	
		<line id="XMLID_5_" style="fill:none;stroke:#8F803E;stroke-miterlimit:10;" x1="171.718" y1="369.381" x2="197.718" y2="262.381"/>
	
		<line id="XMLID_4_" style="fill:none;stroke:#8F803E;stroke-miterlimit:10;" x1="215.385" y1="387.381" x2="285.718" y2="497.381"/>
	
		<line id="XMLID_3_" style="fill:none;stroke:#8F803E;stroke-miterlimit:10;" x1="247.385" y1="342.715" x2="262.718" y2="215.048"/>
</g>
</svg>
